<?xml version="1.0" encoding="utf-8"?>
<!-- Generator: Adobe Illustrator 28.1.0, SVG Export Plug-In . SVG Version: 6.00 Build 0)  -->
<svg version="1.1" id="Layer_1" xmlns="http://www.w3.org/2000/svg" xmlns:xlink="http://www.w3.org/1999/xlink" x="0px" y="0px"
	 viewBox="0 0 50 50" style="enable-background:new 0 0 50 50;" xml:space="preserve">
<style type="text/css">
	.st0{fill:#FF4081;}
	.st1{fill:#FFFFFF;}
</style>
<path class="st0" d="M50,43.1c0,3.8-3.1,6.9-6.9,6.9H6.9C3.1,50,0,46.9,0,43.1V6.9C0,3.1,3.1,0,6.9,0h36.1C46.9,0,50,3.1,50,6.9
	V43.1z"/>
<path class="st1" d="M37.6,28.2c-1-0.3-2,0.2-2.3,1.2c-1.1,3.7-3.2,7.5-4.2,7.7c-0.7,0-1.7-0.6-2.7-2c2.3-5,3.5-11.3,3.5-15.4
	c0-11.7-3-14.1-5.4-14.1c-5.2,0-5.3,13.8-5.3,13.9c0,1.6,0.1,3.1,0.2,4.5c-0.7-0.3-1.5-0.4-2.5-0.4c-5.4,0-7.8,5.3-7.8,10.2
	c0,4.6,2.6,9.3,8.4,9.3c2.7,0,5-1.8,6.9-4.5c1.6,1.7,3.4,2.4,4.7,2.4c4.1,0,6.7-7.3,7.7-10.4C39.1,29.5,38.6,28.5,37.6,28.2z
	 M19.5,39.3c-4.2,0-4.7-3.9-4.7-5.5c0-0.3,0-6.4,4.1-6.4c1.6,0,2.8,1.2,2.8,1.2c0.1,0.1,0.2,0.2,0.3,0.3c0.5,2.6,1.3,4.8,2.1,6.4
	C22.7,37.7,21.1,39.3,19.5,39.3z M26.3,30.5c-0.8-2.7-1.3-6.3-1.3-11c0-4.3,0.9-8.4,1.7-9.8c0.6,0.9,1.5,3.7,1.5,10.1
	C28.2,23.1,27.4,27,26.3,30.5z"/>
</svg>
