<?xml version="1.0" encoding="utf-8"?>
<!-- Generator: Adobe Illustrator 28.1.0, SVG Export Plug-In . SVG Version: 6.00 Build 0)  -->
<svg version="1.1" id="Layer_1" xmlns="http://www.w3.org/2000/svg" xmlns:xlink="http://www.w3.org/1999/xlink" x="0px" y="0px"
	 viewBox="0 0 50 50" style="enable-background:new 0 0 50 50;" xml:space="preserve">
<style type="text/css">
	.st0{fill:#03A9F4;}
	.st1{fill:#FFFFFF;}
</style>
<path class="st0" d="M50,43.1c0,3.8-3.1,6.9-6.9,6.9H6.9C3.1,50,0,46.9,0,43.1V6.9C0,3.1,3.1,0,6.9,0h36.1C46.9,0,50,3.1,50,6.9
	V43.1z"/>
<path class="st1" d="M43.8,12.9c-1.4,0.6-2.9,1-4.4,1.2c1.6-0.9,2.8-2.4,3.4-4.2c-1.5,0.9-3.1,1.5-4.9,1.9c-1.4-1.5-3.4-2.4-5.6-2.4
	c-4.3,0-7.7,3.4-7.7,7.6c0,0.6,0.1,1.2,0.2,1.7c-6.4-0.3-12.1-3.4-15.9-8c-0.7,1.1-1,2.4-1,3.8c0,2.6,1.4,5,3.4,6.3
	c-1.3,0-2.4-0.4-3.5-1c0,0,0,0.1,0,0.1c0,3.7,2.7,6.8,6.2,7.5c-0.6,0.2-1.3,0.3-2,0.3c-0.5,0-1-0.1-1.4-0.1c1,3,3.8,5.2,7.2,5.3
	c-2.6,2-5.9,3.3-9.6,3.3c-0.6,0-1.2,0-1.8-0.1c3.4,2.2,7.5,3.4,11.8,3.4c14.2,0,21.9-11.6,21.9-21.7c0-0.3,0-0.7,0-1
	C41.4,15.8,42.7,14.5,43.8,12.9"/>
</svg>
