<?xml version="1.0" encoding="utf-8"?>
<!-- Generator: Adobe Illustrator 28.1.0, SVG Export Plug-In . SVG Version: 6.00 Build 0)  -->
<svg version="1.1" id="Layer_1" xmlns="http://www.w3.org/2000/svg" xmlns:xlink="http://www.w3.org/1999/xlink" x="0px" y="0px"
	 viewBox="0 0 50 50" style="enable-background:new 0 0 50 50;" xml:space="preserve">
<g>
	<path d="M21.1,34.5c0.9-0.2,1.6-0.6,2.3-1c0.7-0.5,1.2-1.1,1.6-1.8c0.4-0.7,0.6-1.6,0.6-2.6c0-1.2-0.3-2.3-0.9-3.2
		c-0.6-0.9-1.5-1.5-2.7-1.9c0.9-0.4,1.6-1,2-1.6c0.5-0.7,0.7-1.5,0.7-2.5c0-0.9-0.2-1.7-0.5-2.3c-0.3-0.6-0.7-1.1-1.3-1.5
		c-0.6-0.4-1.2-0.7-2-0.8c-0.8-0.2-1.7-0.3-2.6-0.3H8.8v20h9.7C19.3,34.8,20.2,34.7,21.1,34.5z M13.2,18.2h4.1c0.4,0,0.8,0,1.1,0.1
		c0.4,0.1,0.7,0.2,1,0.4c0.3,0.2,0.5,0.4,0.7,0.7c0.2,0.3,0.2,0.7,0.2,1.1c0,0.8-0.2,1.4-0.8,1.8c-0.5,0.4-1.2,0.6-1.9,0.6h-4.5
		L13.2,18.2L13.2,18.2z M13.2,31.4v-5.5h4.8c0.9,0,1.7,0.2,2.3,0.7c0.6,0.4,0.9,1.2,0.9,2.2c0,0.5-0.1,1-0.3,1.3
		c-0.2,0.3-0.4,0.6-0.7,0.8c-0.3,0.2-0.6,0.3-1,0.4c-0.4,0.1-0.8,0.1-1.2,0.1L13.2,31.4L13.2,31.4z"/>
	<path d="M28.8,33.1c0.6,0.7,1.4,1.2,2.3,1.6c0.9,0.4,1.9,0.5,3.1,0.5c1.6,0,3-0.4,4.2-1.1c1.2-0.7,2-2,2.6-3.7h-3.5
		c-0.1,0.4-0.5,0.9-1.1,1.3c-0.6,0.4-1.3,0.6-2.1,0.6c-1.1,0-2-0.3-2.6-0.9c-0.6-0.6-1-1.7-1-2.8h10.4c0.1-1.1,0-2.2-0.3-3.2
		c-0.3-1-0.7-1.9-1.3-2.7c-0.6-0.8-1.3-1.4-2.3-1.9c-0.9-0.5-2-0.7-3.2-0.7c-1.1,0-2.1,0.2-3,0.6c-0.9,0.4-1.7,0.9-2.3,1.6
		c-0.7,0.7-1.2,1.5-1.5,2.4c-0.4,0.9-0.5,1.9-0.5,3c0,1.1,0.2,2.2,0.5,3.1C27.7,31.6,28.1,32.4,28.8,33.1z M31,25.1
		c0.1-0.4,0.3-0.7,0.5-1c0.3-0.3,0.6-0.6,1-0.8c0.4-0.2,0.9-0.3,1.6-0.3c1,0,1.8,0.3,2.2,0.8c0.5,0.5,0.8,1.3,0.9,2.3h-6.5
		C30.8,25.7,30.9,25.4,31,25.1z"/>
	<rect x="30" y="16.2" width="8.1" height="2"/>
	<path d="M0,0v50h50V0H0z M46.9,46.9H3.1V3.1h43.8V46.9z"/>
</g>
</svg>
