<?xml version="1.0" encoding="utf-8"?>
<!-- Generator: Adobe Illustrator 28.1.0, SVG Export Plug-In . SVG Version: 6.00 Build 0)  -->
<svg version="1.1" id="Layer_1" xmlns="http://www.w3.org/2000/svg" xmlns:xlink="http://www.w3.org/1999/xlink" x="0px" y="0px"
	 viewBox="0 0 50 50" style="enable-background:new 0 0 50 50;" xml:space="preserve">
<style type="text/css">
	.st0{fill:#0288D1;}
	.st1{fill:#FFFFFF;}
</style>
<path class="st0" d="M50,43.1c0,3.8-3.1,6.9-6.9,6.9H6.9C3.1,50,0,46.9,0,43.1V6.9C0,3.1,3.1,0,6.9,0H43c3.9,0,7,3.1,7,6.9V43.1z"/>
<path class="st1" d="M8.3,18.1h6.9v23.6H8.3V18.1z M11.8,15.3L11.8,15.3c-2.1,0-3.5-1.5-3.5-3.5s1.4-3.5,3.5-3.5s3.4,1.5,3.5,3.5
	C15.3,13.7,13.9,15.3,11.8,15.3z M41.7,41.7h-6.9V29c0-3.1-1.7-5.1-4.4-5.1c-2.1,0-3.2,1.4-3.8,2.8c-0.2,0.5-0.1,1.8-0.1,2.5v12.5
	h-6.9V18.1h6.9v3.6c1-1.5,2.6-3.6,6.6-3.6c5,0,8.7,3.1,8.7,10.1L41.7,41.7L41.7,41.7z"/>
</svg>
