<?xml version="1.0" encoding="utf-8"?>
<!-- Generator: Adobe Illustrator 28.1.0, SVG Export Plug-In . SVG Version: 6.00 Build 0)  -->
<svg version="1.1" id="Layer_1" xmlns="http://www.w3.org/2000/svg" xmlns:xlink="http://www.w3.org/1999/xlink" x="0px" y="0px"
	 viewBox="0 0 50 50" style="enable-background:new 0 0 50 50;" xml:space="preserve">
<path d="M25,0.2c-13.8,0-25,11.2-25,25c0,11.7,8.1,21.5,18.9,24.2c-0.1-0.3-0.2-0.7-0.2-1.2v-4.3c-1,0-2.7,0-3.1,0
	c-1.7,0-3.2-0.7-4-2.1c-0.8-1.5-1-3.8-3-5.3c-0.6-0.5-0.1-1,0.6-0.9c1.3,0.4,2.3,1.2,3.3,2.5c1,1.3,1.5,1.6,3.3,1.6
	c0.9,0,2.3-0.1,3.5-0.3c0.7-1.7,1.9-3.3,3.3-4.1c-8.3-0.9-12.3-5-12.3-10.6c0-2.4,1-4.8,2.8-6.7c-0.6-2-1.3-6,0.2-7.5
	c3.7,0,6,2.4,6.6,3.1c1.9-0.6,3.9-1,6.1-1c2.2,0,4.2,0.4,6.1,1c0.5-0.7,2.8-3.1,6.6-3.1c1.5,1.5,0.8,5.5,0.2,7.5
	c1.7,2,2.8,4.3,2.8,6.7c0,5.6-4,9.8-12.3,10.6c2.3,1.2,4,4.5,4,7.1v5.7c0,0.2,0,0.4-0.1,0.6C43,45.4,50,36.1,50,25.2
	C50,11.4,38.8,0.2,25,0.2z"/>
</svg>
