<?xml version="1.0" encoding="utf-8"?>
<!-- Generator: Adobe Illustrator 28.1.0, SVG Export Plug-In . SVG Version: 6.00 Build 0)  -->
<svg version="1.1" id="Layer_1" xmlns="http://www.w3.org/2000/svg" xmlns:xlink="http://www.w3.org/1999/xlink" x="0px" y="0px"
	 viewBox="0 0 50 50" style="enable-background:new 0 0 50 50;" xml:space="preserve">
<style type="text/css">
	.st0{fill:#1E88E5;}
	.st1{fill:#FFFFFF;}
</style>
<g>
	<path class="st0" d="M50,43.1c0,3.8-3.1,6.9-6.9,6.9H6.9C3.1,50,0,46.9,0,43.1V6.9C0,3.1,3.1,0,6.9,0H43c3.9,0,7,3.1,7,6.9V43.1z"
		/>
	<path class="st1" d="M41.6,16l-9,9l9,9c0.1-0.2,0.1-0.5,0.1-0.7V16.7C41.7,16.4,41.6,16.2,41.6,16z M28.7,24.9L39.6,14
		c-0.2-0.1-0.5-0.1-0.7-0.1H11.1c-0.2,0-0.5,0-0.7,0.1l10.9,10.9C23.3,26.9,26.7,26.9,28.7,24.9z M25,29.2c-2,0-4-0.8-5.5-2.2
		l-9.1,9c0.2,0.1,0.5,0.1,0.7,0.1h27.8c0.2,0,0.5,0,0.7-0.1l-9.1-9.1C29,28.4,27,29.2,25,29.2z M8.4,16c-0.1,0.2-0.1,0.5-0.1,0.7
		v16.7c0,0.2,0,0.5,0.1,0.7l9-9L8.4,16z"/>
</g>
</svg>
